<svg xmlns="http://www.w3.org/2000/svg" height="512" preserveAspectRatio="none" style="display: block;" version="1.1" viewBox="0 0 2048 2048" width="512">
<path d="M 503.414 452.95 C 508.123 428.308 518.705 391.738 525.339 366.66 L 561.578 227.782 C 579.774 232.278 600.745 239.222 619.036 244.473 L 1265.37 434.961 C 1323.76 452.577 1334.6 452.933 1391.82 452.909 L 1529.92 452.95 L 1529.92 1175.21 C 1529.91 1202.84 1528.88 1236.35 1529.92 1263.45 C 1540.16 1229.27 1549.38 1189.47 1558.86 1154.51 L 1621.73 922.423 C 1644.42 836.132 1669.5 750.967 1691.95 664.381 C 1650.71 654.791 1611.43 637.389 1570.69 626.378 L 1570.69 530.483 L 1804.07 604.603 C 1777.86 689.281 1758.08 768.629 1735.68 853.841 L 1669.8 1102.63 C 1655.54 1158.89 1640.17 1213.55 1625.11 1269.52 L 1541.91 1575.57 C 1528.12 1627.46 1525.67 1638.39 1525.68 1692.15 L 1525.73 1775.84 L 246.024 1775.84 L 246.024 452.95 L 503.414 452.95 z M 626.133 343.218 L 597.382 452.95 L 954.199 452.95 C 965.824 452.257 973.828 452.498 985.382 452.95 C 974.258 448.251 962.059 442.978 950.465 439.627 C 844.065 408.872 732.89 369.51 626.133 343.218 z M 407.745 543.338 L 338.764 543.338 L 338.714 1643.69 C 338.698 1655.7 338.058 1672.75 338.764 1684.29 L 1368.5 1684.29 L 1435.86 1684.29 L 1435.86 543.338 C 1323.07 541.801 1206.39 543.336 1093.4 543.338 L 407.745 543.338 z" fill="rgb(0,0,0)" transform="translate(0,0)"></path>
<path d="M 508.73 1344.71 L 508.73 851.847 L 646.412 851.825 C 683.249 851.823 756.684 847.785 788.976 859.131 C 856.028 882.691 905.546 953.437 879.507 1024.76 C 867.71 1057.07 843.755 1068.89 814.297 1082.42 C 906.006 1096.64 932.632 1182.76 899.957 1263.45 C 838.906 1355.25 762.873 1344.71 660.666 1344.74 L 508.73 1344.71 z M 622.803 944.742 C 622.37 973.07 621.652 1018.24 622.803 1045.9 L 684.819 1045.99 C 710.666 1046.02 736.692 1048.78 758.015 1031.35 C 776.851 1011.53 778.472 979.713 758.461 959.929 C 738.686 940.377 701.425 944.519 675.398 944.643 L 622.803 944.742 z M 622.803 1136.76 L 622.803 1247.77 L 680.494 1247.82 C 715.118 1247.81 752.376 1250.06 782.038 1229.37 C 803.376 1210.26 805.951 1177.8 785.684 1156.25 C 757.599 1126.4 662.797 1136.69 622.803 1136.76 z" fill="rgb(0,0,0)" transform="translate(0,0)"></path>
<path d="M 927.431 947.93 L 927.431 851.847 L 1288.4 851.847 L 1288.4 947.93 L 1165.83 947.93 L 1165.83 1225.84 L 1165.83 1344.71 L 1047.24 1344.71 L 1047.24 947.93 C 1007.57 947.47 967.159 947.897 927.431 947.93 z" fill="rgb(0,0,0)" transform="translate(0,0)"></path>
<metadata><recraft-signature>{"signed_by": "recraft", "signature_b64": "qxA8VQksW2ITzh4984SlAdjLEf7gEaJ8Jeh6VIFKox7FLiHDuFU3HTqt9Zwi0o6Iw/KA1gFLCZrr/OPMwIKvBQ==", "signing_algo": "Ed25519", "generation_timestamp": 1773559339, "identifier": "0833b877-e940-49ae-b16f-832ae8dfddfc"}</recraft-signature></metadata></svg>